<?xml version="1.0" encoding="UTF-8"?>
<svg id="_Слой_1" data-name="Слой 1" xmlns="http://www.w3.org/2000/svg" xmlns:xlink="http://www.w3.org/1999/xlink" viewBox="0 0 24 24">
  <defs>
    <style>
      .cls-1 {
        stroke-width: 0px;
      }

      .cls-1, .cls-2, .cls-3, .cls-4 {
        fill: none;
      }

      .cls-2 {
        stroke: url(#_Безымянный_градиент_15-2);
      }

      .cls-2, .cls-3, .cls-4 {
        stroke-linecap: round;
        stroke-linejoin: round;
        stroke-width: 2px;
      }

      .cls-3 {
        stroke: url(#_Безымянный_градиент_15-3);
      }

      .cls-4 {
        stroke: url(#_Безымянный_градиент_15);
      }
    </style>
    <linearGradient id="_Безымянный_градиент_15" data-name="Безымянный градиент 15" x1="2" y1="12.5" x2="21" y2="12.5" gradientUnits="userSpaceOnUse">
      <stop offset="0" stop-color="#ffc550"/>
      <stop offset="1" stop-color="#deff7e"/>
    </linearGradient>
    <linearGradient id="_Безымянный_градиент_15-2" data-name="Безымянный градиент 15" x1="14" y1="8" x2="18" y2="8" xlink:href="#_Безымянный_градиент_15"/>
    <linearGradient id="_Безымянный_градиент_15-3" data-name="Безымянный градиент 15" x1="14" y1="6" x2="22" y2="6" xlink:href="#_Безымянный_градиент_15"/>
  </defs>
  <path class="cls-1" d="M0,0h24v24H0V0Z"/>
  <path class="cls-4" d="M5,4h4l2,5-2.5,1.5c1.07,2.17,2.83,3.93,5,5l1.5-2.5,5,2v4c0,1.1-.9,2-2,2-8.07-.49-14.51-6.93-15-15,0-1.1.9-2,2-2"/>
  <path class="cls-2" d="M15,7c1.1,0,2,.9,2,2"/>
  <path class="cls-3" d="M15,3c3.31,0,6,2.69,6,6"/>
</svg>